<?xml version="1.0" encoding="UTF-8" standalone="no"?>
<!-- Created with Inkscape (http://www.inkscape.org/) -->

<svg
   width="47.128387mm"
   height="48.672684mm"
   viewBox="0 0 47.128387 48.672684"
   version="1.1"
   id="svg1"
   inkscape:version="1.4.2 (ebf0e94, 2025-05-08)"
   sodipodi:docname="drawing.svg"
   xmlns:inkscape="http://www.inkscape.org/namespaces/inkscape"
   xmlns:sodipodi="http://sodipodi.sourceforge.net/DTD/sodipodi-0.dtd"
   xmlns="http://www.w3.org/2000/svg"
   xmlns:svg="http://www.w3.org/2000/svg">
  <sodipodi:namedview
     id="namedview1"
     pagecolor="#ffffff"
     bordercolor="#000000"
     borderopacity="0.25"
     inkscape:showpageshadow="2"
     inkscape:pageopacity="0.0"
     inkscape:pagecheckerboard="0"
     inkscape:deskcolor="#d1d1d1"
     inkscape:document-units="mm"
     inkscape:zoom="0.82928233"
     inkscape:cx="448.58064"
     inkscape:cy="379.84651"
     inkscape:window-width="1138"
     inkscape:window-height="602"
     inkscape:window-x="0"
     inkscape:window-y="0"
     inkscape:window-maximized="1"
     inkscape:current-layer="layer1"
     showguides="true">
    <inkscape:page
       x="0"
       y="0"
       width="47.128387"
       height="48.672684"
       id="page2"
       margin="0"
       bleed="0" />
  </sodipodi:namedview>
  <defs
     id="defs1" />
  <g
     inkscape:label="Layer 1"
     inkscape:groupmode="layer"
     id="layer1"
     transform="translate(-75.630384,-81.909011)">
    <g
       id="g27">
      <path
         d="m 107.80983,82.43601 -4.42196,17.548265 a 21.218264,21.187328 30 0 1 7.6259,12.437995 21.218264,21.187328 30 0 1 0.41806,4.06539 l 1.35857,-4.06539 5.00951,-14.992863 3.08095,-9.219587 1.87792,-5.62085 v -0.15296 h -7.53545 z"
         style="fill:#5555ff;stroke:none;stroke-width:0.20647"
         id="path23" />
      <path
         d="m 75.630387,81.909011 4.802291,14.37897 a 21.218264,21.187328 30 0 1 10.201445,-1.27073 21.218264,21.187328 30 0 1 3.458703,0.7152 l -3.458703,-13.82344 z"
         style="fill:#5555ff;stroke:none;stroke-width:0.20647"
         id="path22" />
      <path
         d="m 89.101917,98.56691 a 21.218264,21.187328 30 0 0 -7.610905,1.42524 l 0.205156,0.61443 5.007446,14.99288 1.232483,3.6897 a 10.531721,10.531721 0 0 1 1.165303,0.57981 10.531721,10.531721 0 0 1 2.591057,2.10788 10.531721,10.531721 0 0 1 0.02222,0.0248 10.531721,10.531721 0 0 1 2.531628,8.57983 h 12.472105 0.007 l 3.64784,-10.91613 a 21.218264,21.187328 30 0 0 -0.41806,-4.0659 21.218264,21.187328 30 0 0 -7.62589,-12.438 l -3.134695,12.438 -4.043681,-16.16284 a 21.218264,21.187328 30 0 0 -3.458703,-0.7152 21.218264,21.187328 30 0 0 -2.59054,-0.15451 z"
         style="fill:#0000aa;stroke:none;stroke-width:0.20647"
         id="path21" />
      <path
         d="m 88.596659,120.94146 c 1.004612,3.00791 2.077188,6.21866 3.219959,9.64023 h 2.008146 a 10.531721,10.531721 0 0 0 -2.639115,-7.5215 10.531721,10.531721 0 0 0 -0.02222,-0.0248 10.531721,10.531721 0 0 0 -2.566769,-2.09392 z"
         style="fill:#00002b;stroke-width:0.20647"
         id="path27" />
    </g>
  </g>
</svg>
